<svg width="15" height="15" viewBox="0 0 15 15" fill="none" xmlns="http://www.w3.org/2000/svg">
  <path d="M3.125 12.5V11.25H11.875V12.5H3.125ZM3.125 10.3125L2.32813 5.29688C2.30729 5.29688 2.28375 5.29958 2.2575 5.305C2.23125 5.31042 2.20792 5.31292 2.1875 5.3125C1.92708 5.3125 1.70583 5.22125 1.52375 5.03875C1.34167 4.85625 1.25042 4.635 1.25 4.375C1.24958 4.115 1.34083 3.89375 1.52375 3.71125C1.70667 3.52875 1.92792 3.4375 2.1875 3.4375C2.44708 3.4375 2.66854 3.52875 2.85188 3.71125C3.03521 3.89375 3.12625 4.115 3.125 4.375C3.125 4.44792 3.11708 4.51563 3.10125 4.57813C3.08542 4.64063 3.06729 4.69792 3.04688 4.75L5 5.625L6.95313 2.95313C6.83854 2.86979 6.74479 2.76042 6.67188 2.625C6.59896 2.48958 6.5625 2.34375 6.5625 2.1875C6.5625 1.92708 6.65375 1.70563 6.83625 1.52313C7.01875 1.34063 7.24 1.24958 7.5 1.25C7.76 1.25042 7.98146 1.34167 8.16438 1.52375C8.34729 1.70583 8.43833 1.92708 8.4375 2.1875C8.4375 2.34375 8.40104 2.48958 8.32813 2.625C8.25521 2.76042 8.16146 2.86979 8.04688 2.95313L10 5.625L11.9531 4.75C11.9323 4.69792 11.914 4.64063 11.8981 4.57813C11.8823 4.51563 11.8746 4.44792 11.875 4.375C11.875 4.11458 11.9663 3.89313 12.1488 3.71063C12.3313 3.52813 12.5525 3.43708 12.8125 3.4375C13.0725 3.43792 13.294 3.52917 13.4769 3.71125C13.6598 3.89333 13.7508 4.11458 13.75 4.375C13.7492 4.63542 13.6581 4.85688 13.4769 5.03938C13.2956 5.22188 13.0742 5.31292 12.8125 5.3125C12.7917 5.3125 12.7683 5.31 12.7425 5.305C12.7167 5.3 12.6931 5.29729 12.6719 5.29688L11.875 10.3125H3.125Z" fill="#FFD600"/>
</svg>
