<svg width="13" height="14" viewBox="0 0 13 14" fill="none" xmlns="http://www.w3.org/2000/svg">
<path d="M4.50047 2.21287C4.88426 1.08975 6.43611 1.05573 6.89114 2.11083L6.92965 2.21351L7.44757 3.72812C7.56626 4.07548 7.75807 4.39334 8.01005 4.66027C8.26204 4.92719 8.56833 5.13698 8.90828 5.27547L9.04755 5.32745L10.5622 5.84473C11.6853 6.22852 11.7193 7.78035 10.6649 8.23537L10.5622 8.27388L9.04755 8.7918C8.70008 8.91042 8.38209 9.10219 8.11504 9.35417C7.848 9.60615 7.63811 9.91249 7.49956 10.2525L7.44757 10.3911L6.93029 11.9064C6.5465 13.0295 4.99465 13.0635 4.54026 12.0091L4.50047 11.9064L3.98319 10.3918C3.86457 10.0443 3.6728 9.72631 3.42082 9.45927C3.16883 9.19223 2.86249 8.98234 2.52248 8.84379L2.38385 8.7918L0.869226 8.27452C-0.254548 7.89074 -0.288563 6.3389 0.766539 5.88452L0.869226 5.84473L2.38385 5.32745C2.73121 5.20876 3.04907 5.01695 3.316 4.76497C3.58293 4.51299 3.79271 4.2067 3.9312 3.86675L3.98319 3.72812L4.50047 2.21287ZM10.8497 1.15962e-07C10.9698 -1.51443e-07 11.0874 0.0336797 11.1893 0.097212C11.2912 0.160744 11.3732 0.251581 11.426 0.359399L11.4568 0.434488L11.6815 1.09296L12.3406 1.31758C12.4609 1.35846 12.5664 1.43414 12.6436 1.53503C12.7209 1.63592 12.7665 1.75747 12.7746 1.88429C12.7827 2.01111 12.753 2.13748 12.6892 2.24739C12.6254 2.3573 12.5304 2.4458 12.4163 2.50167L12.3406 2.53248L11.6821 2.7571L11.4575 3.41622C11.4165 3.53651 11.3408 3.64193 11.2399 3.71913C11.1389 3.79634 11.0174 3.84184 10.8905 3.84988C10.7637 3.85793 10.6374 3.82814 10.5275 3.76431C10.4176 3.70047 10.3292 3.60546 10.2734 3.49131L10.2426 3.41622L10.0179 2.75775L9.35882 2.53312C9.2385 2.49224 9.13302 2.41656 9.05575 2.31568C8.97848 2.21479 8.9329 2.09323 8.92479 1.96641C8.91668 1.83959 8.9464 1.71322 9.01019 1.60331C9.07397 1.4934 9.16895 1.4049 9.28309 1.34903L9.35882 1.31822L10.0173 1.0936L10.2419 0.434488C10.2852 0.307688 10.3671 0.197611 10.4761 0.119692C10.5851 0.0417731 10.7157 -8.04036e-05 10.8497 1.15962e-07Z" fill="#B9B6AC"/>
</svg>
